<?xml version="1.0" encoding="UTF-8" standalone="no"?>
<svg
   width="70"
   height="70"
   viewBox="0 0 70 70"
   version="1.1"
   id="svg48"
   sodipodi:docname="icon.svg"
   inkscape:version="1.2 (56b05e47e7, 2022-06-09, custom)"
   inkscape:export-filename="../f8ce381d/icon.svg"
   inkscape:export-xdpi="96"
   inkscape:export-ydpi="96"
   xmlns:inkscape="http://www.inkscape.org/namespaces/inkscape"
   xmlns:sodipodi="http://sodipodi.sourceforge.net/DTD/sodipodi-0.dtd"
   xmlns:xlink="http://www.w3.org/1999/xlink"
   xmlns="http://www.w3.org/2000/svg"
   xmlns:svg="http://www.w3.org/2000/svg">
  <sodipodi:namedview
     id="namedview50"
     pagecolor="#ffffff"
     bordercolor="#999999"
     borderopacity="1"
     inkscape:showpageshadow="0"
     inkscape:pageopacity="0"
     inkscape:pagecheckerboard="0"
     inkscape:deskcolor="#d1d1d1"
     showgrid="false"
     inkscape:zoom="8.6"
     inkscape:cx="6.3953488"
     inkscape:cy="11.337209"
     inkscape:window-width="1600"
     inkscape:window-height="768"
     inkscape:window-x="0"
     inkscape:window-y="27"
     inkscape:window-maximized="1"
     inkscape:current-layer="g44" />
  <defs
     id="defs27">
    <path
       id="icon-a"
       d="M4 0h61c4 0 5 1 5 5v60c0 4-1 5-5 5H4c-3 0-4-1-4-5V5c0-4 1-5 4-5z" />
    <linearGradient
       id="icon-c"
       x1="98.162%"
       x2="0%"
       y1="1.838%"
       y2="100%">
      <stop
         offset="0%"
         stop-color="#797DA5"
         id="stop19" />
      <stop
         offset="50.799%"
         stop-color="#6D7194"
         id="stop21" />
      <stop
         offset="100%"
         stop-color="#626584"
         id="stop23" />
    </linearGradient>
    <path
       id="icon-d"
       d="M56.583 23.333h-3.5c-.518 0-.983.226-1.304.584h-1.715l-2.27-2.647-.012-.013a7.581 7.581 0 0 0-5.707-2.59h-3.394c-1.294 0-2.545.36-3.623 1.021a8.19 8.19 0 0 0-3.95-1.021h-2.342c-2.107 0-4.2.818-5.775 2.391l-2.857 2.859H18.22a1.745 1.745 0 0 0-1.304-.584h-3.5a1.75 1.75 0 0 0-1.75 1.75v17.5c0 .967.783 1.75 1.75 1.75h3.5a1.75 1.75 0 0 0 1.65-1.166h1.37l5.495 4.927c1.862 1.928 4.37 3.24 7.042 3.24 1.195 0 2.354-.281 3.362-.798 1.818.037 3.726-.756 5.036-2.29a7.109 7.109 0 0 0 3.698-2.523c1.53-.32 2.97-1.202 3.896-2.556h2.967a1.75 1.75 0 0 0 1.65 1.166h3.5a1.75 1.75 0 0 0 1.75-1.75v-17.5a1.75 1.75 0 0 0-1.75-1.75zM15.167 42a1.167 1.167 0 1 1 0-2.333 1.167 1.167 0 0 1 0 2.333zm30.08-.42c-1.12 1.042-2.69.826-2.914.583.103.976-1.331 2.993-3.579 2.835-.404 1.351-2.057 2.467-3.754 1.878-.648.648-1.638.957-2.526.957-1.82 0-3.483-1.06-4.604-2.254l-5.928-5.316a2.332 2.332 0 0 0-1.557-.596h-1.718v-12.25h1.95c.619 0 1.212-.246 1.65-.684l3.2-3.2a4.667 4.667 0 0 1 3.3-1.366h2.34c.424 0 .84.057 1.24.167l-3.155 3.682a5.376 5.376 0 0 0-.048 6.96c2.362 2.833 6.663 2.86 9.077.143l1.894-2.193 5.282 6.99c.98 1.065.799 2.781-.15 3.664zm6.086-1.913H49.55a5.985 5.985 0 0 0-1.441-3.967l-5.693-7.534a1.752 1.752 0 0 0-2.907-1.894l-3.911 4.53a2.49 2.49 0 0 1-3.765-.068 1.885 1.885 0 0 1 .016-2.44l4.224-4.928a3.434 3.434 0 0 1 2.608-1.2h3.394c1.175 0 2.293.507 3.068 1.389l3.312 3.862h2.878v12.25zm3.5 2.333a1.167 1.167 0 1 1 0-2.333 1.167 1.167 0 0 1 0 2.333z" />
    <filter
       style="color-interpolation-filters:sRGB;"
       inkscape:label="Drop Shadow"
       id="filter869"
       x="-0.19827451"
       y="-0.10902208"
       width="1.3338039"
       height="1.3189905">
      <feFlood
         flood-opacity="0.619608"
         flood-color="rgb(0,0,0)"
         result="flood"
         id="feFlood859" />
      <feComposite
         in="flood"
         in2="SourceGraphic"
         operator="in"
         result="composite1"
         id="feComposite861" />
      <feGaussianBlur
         in="composite1"
         stdDeviation="0.9"
         result="blur"
         id="feGaussianBlur863" />
      <feOffset
         dx="-1"
         dy="2"
         result="offset"
         id="feOffset865" />
      <feComposite
         in="SourceGraphic"
         in2="offset"
         operator="over"
         result="fbSourceGraphic"
         id="feComposite867" />
      <feColorMatrix
         result="fbSourceGraphicAlpha"
         in="fbSourceGraphic"
         values="0 0 0 -1 0 0 0 0 -1 0 0 0 0 -1 0 0 0 0 1 0"
         id="feColorMatrix871" />
      <feFlood
         id="feFlood873"
         flood-opacity="0.619608"
         flood-color="rgb(0,0,0)"
         result="flood"
         in="fbSourceGraphic" />
      <feComposite
         in2="fbSourceGraphic"
         id="feComposite875"
         in="flood"
         operator="in"
         result="composite1" />
      <feGaussianBlur
         id="feGaussianBlur877"
         in="composite1"
         stdDeviation="0.9"
         result="blur" />
      <feOffset
         id="feOffset879"
         dx="-1"
         dy="2"
         result="offset" />
      <feComposite
         in2="offset"
         id="feComposite881"
         in="fbSourceGraphic"
         operator="over"
         result="composite2" />
    </filter>
  </defs>
  <g
     fill="none"
     fill-rule="evenodd"
     id="g46">
    <mask
       id="icon-b"
       fill="#fff">
      <use
         xlink:href="#icon-a"
         id="use29" />
    </mask>
    <g
       mask="url(#icon-b)"
       id="g44">
      <path
         fill="url(#icon-c)"
         d="M 0,0 H 70 V 70 H 0 Z"
         id="path32" />
      <path
         fill="#ffffff"
         fill-opacity="0.383"
         d="m 4,1 h 61 c 2.667,0 4.333,0.667 5,2 V 0 H 0 V 3 C 0.667,1.667 2,1 4,1 Z"
         id="path34" />
      <path
         fill="#000000"
         d="M 33.423,69 H 4.006 C 2.003,69 0,68.854 0,64.911 V 38.065 L 17.786814,17.206396 21.034,24.36 c 9.765552,5.908116 17.955434,5.456908 28.374,0.729 l 0.17059,1.491719 -0.04743,25.666093 z"
         opacity="0.165"
         id="path36"
         sodipodi:nodetypes="cssccccccc" />
      <path
         fill="#000000"
         fill-opacity="0.383"
         d="m 4,69 h 61 c 2.667,0 4.333,-1 5,-3 v 4 H 0 v -4 c 0.667,2 2,3 4,3 z"
         id="path38" />
      <path
         d="m 28.267247,26.96587 h 13.125 v -9.75 q 0,-1.9375 1.34375,-3.3125 1.3125,-1.375 3.28125,-1.375 h 0.0625 q 1.9375,0 3.28125,1.375 1.375,1.375 1.375,3.3125 v 30.28125 q 0,1.9375 -1.375,3.3125 -1.375,1.34375 -3.28125,1.34375 h -0.0625 q -1.96875,0 -3.3125,-1.34375 -1.3125,-1.375 -1.3125,-3.3125 V 34.65337 h -13.125 v 12.84375 q 0,1.9375 -1.375,3.3125 -1.34375,1.34375 -3.3125,1.34375 h -0.09375 q -1.9375,0 -3.28125,-1.34375 -1.34375,-1.375 -1.34375,-3.3125 V 17.21587 q 0,-1.9375 1.34375,-3.3125 1.34375,-1.375 3.28125,-1.375 h 0.09375 q 1.9375,0 3.3125,1.375 1.375,1.375 1.375,3.3125 z"
         style="font-size:64px;line-height:1.25;display:inline;fill:#ffffff;filter:url(#filter869);font-family:Dyuthi;-inkscape-font-specification:'Dyuthi, Normal'"
         id="path963" />
    </g>
  </g>
</svg>
